# xmcd CD database file
# Generated: Sun Apr 18 18:16:20 2004 by KSCD
# 
# Track frame offsets:
#       150
#       29707
#       57930
#       82048
#       104642
#       130482
#       154510
#       178236
#       202497
#       222040
#       241338
#       264733
#       282885
#       306821
#
# Disc length: 4364 seconds
#
# Revision: 1
# Processed by: cddbd v1.5PL3 Copyright (c) Steve Scherf et al.
# Submitted via: Kscd 1.3.3
#
DISCID=db110a0e
DTITLE=chalte chalte - chalte chalte
DYEAR=1900
DGENRE=
TTITLE0=chaltechalte
TTITLE1=Dagariya Chalo
TTITLE2=Door Door Tum Rahe
TTITLE3=Ghum Shuda
TTITLE4=Layi Vi Na Gayee
TTITLE5=Suno Na
TTITLE6=Tauba Tumhare Yeh Ishare
TTITLE7=Tujhpar Gagan Se
TTITLE8=Wo Chali
TTITLE9=Thoda Daru Wich
TTITLE10=Pyar  Ho Gaya  (Remix)
TTITLE11=O Baby Dont Break My Heart
TTITLE12=Nachange Saari Raat
TTITLE13=DjDollRemix-KaantaLaga
EXTD=
EXTT0=
EXTT1=
EXTT2=
EXTT3=
EXTT4=
EXTT5=
EXTT6=
EXTT7=
EXTT8=
EXTT9=
EXTT10=
EXTT11=
EXTT12=
EXTT13=
PLAYORDER=
